PathFileType	4	(x/y/z)	S10_PSF_T15
DataRate	CameraRate	NumFrames	NumMarkers	Units	OrigDataRate	OrigDataStartFrame	OrigNumFrames
240	240	7	51	mm	240	165	439
Frame#	Time	Sternum			R.Acromium			L.Acromium			Top.Head			R.ASIS			L.ASIS			R.PSIS			L.PSIS			R.Great.Tro			L.Great.Tro			R.Iliac.Crest			L.Iliac.Crest			V.Sacral			R.Thigh.Upper.Post			R.Thigh.Lower.Ant			R.Thigh.Lower.Post			R.Thigh.Upper.Ant			R.Knee.Lat			R.Knee.Med			R.Shank.Upper.Post			R.Shank.Lower.Ant			R.Shank.Lower.Post			R.Shank.Upper.Ant			R.Ankle.Lat			R.Ankle.Med			R.Heel.Upper			R.Heel.Med			R.Heel.Lat			R.Toe.Lat			R.Toe.Med			R.Toe.Tip			L.Thigh.Upper.Post			L.Thigh.Lower.Ant			L.Thigh.Lower.Post			L.Thigh.Upper.Ant			L.Knee.Lat			L.Knee.Med			L.Shank.Upper.Post			L.Shank.Lower.Ant			L.Shank.Lower.Post			L.Shank.Upper.Ant			L.Ankle.Lat			L.Ankle.Med			L.Heel.Upper			L.Heel.Med			L.Heel.Lat			L.Toe.Lat			L.Toe.Med			L.Toe.Tip			Cervical.Spine			Back			
		X1	Y1	Z1	X2	Y2	Z2	X3	Y3	Z3	X4	Y4	Z4	X5	Y5	Z5	X6	Y6	Z6	X7	Y7	Z7	X8	Y8	Z8	X9	Y9	Z9	X10	Y10	Z10	X11	Y11	Z11	X12	Y12	Z12	X13	Y13	Z13	X14	Y14	Z14	X15	Y15	Z15	X16	Y16	Z16	X17	Y17	Z17	X18	Y18	Z18	X19	Y19	Z19	X20	Y20	Z20	X21	Y21	Z21	X22	Y22	Z22	X23	Y23	Z23	X24	Y24	Z24	X25	Y25	Z25	X26	Y26	Z26	X27	Y27	Z27	X28	Y28	Z28	X29	Y29	Z29	X30	Y30	Z30	X31	Y31	Z31	X32	Y32	Z32	X33	Y33	Z33	X34	Y34	Z34	X35	Y35	Z35	X36	Y36	Z36	X37	Y37	Z37	X38	Y38	Z38	X39	Y39	Z39	X40	Y40	Z40	X41	Y41	Z41	X42	Y42	Z42	X43	Y43	Z43	X44	Y44	Z44	X45	Y45	Z45	X46	Y46	Z46	X47	Y47	Z47	X48	Y48	Z48	X49	Y49	Z49	X50	Y50	Z50	X51	Y51	Z51	

165	0.68333	-580.71	1241	352.15	-733.38	1386.1	492.75	-674.26	1429.1	196.47	-757.43	1714.1	368.54	-628.85	986.92	439.89	-621.72	984.89	209.75	-829.37	991.96	348.79	-819.58	997.05	269.24	-685.79	911.74	515.17	-692.09	915.7	153.11	-733.53	1060.6	481.46	-687.57	1058.3	181.37	-846.18	960.12	312.6	-594.08	716.87	507.46	-519.27	664.18	461.44	-569.25	631.22	496.07	-544.23	751.83	466.83	-528.21	515.83	453.54	-552.15	514.55	327.24	-543.46	280.78	459.83	-468.26	234.12	438.42	-526.03	208.61	453.66	-480.29	310.85	444.04	-489.29	107	432.14	-484.64	119.73	352.44	-546.86	63.952	385.87	-535.75	35.256	358.87	-538.87	39.443	420.4	-365.84	40.837	461.31	-340.1	50.289	352.86	-282.36	70.623	393.93	-799.63	663.06	178.29	-747.8	566.78	195.65	-819.41	573.37	199.25	-722.4	650.11	173.87	-820.31	482.39	203.89	-799.56	472.69	332.04	-995.86	350.91	203.4	-999.12	239.45	214.1	-1042.5	287.27	213.13	-953.37	301.9	205.8	-1100.7	171	224	-1076.2	171.53	306.92	-1170.5	182.62	269.55	-1175.9	152.07	304.22	-1185.1	153.1	241.02	-1054.8	46.496	198.68	-1020.7	45.549	303.29	-973.42	42.124	258.3	-785.27	1462.5	340.46	-862.05	1253.8	301.6
166	0.6875	-574.75	1241.6	352.68	-727.34	1386.4	493.55	-668.81	1429.7	197.22	-752	1714.6	369.3	-622.67	987.84	440.36	-615.96	985.24	210.22	-823.31	992.47	349.52	-813.54	997.3	269.96	-679.4	912.83	515.84	-686.16	915.61	153.9	-727.26	1061.5	481.98	-681.85	1058.6	181.85	-840.13	960.45	313.45	-587.85	717.68	507.87	-513.16	664.91	461.73	-563.12	631.98	496.42	-538.03	752.61	467.23	-522.4	516.4	453.6	-546.94	515.55	327.48	-540.13	281.36	459.96	-465.58	233.83	438.18	-523.59	209	453.63	-476.68	310.7	443.91	-488.47	107.12	431.86	-483.62	119.69	352.26	-546.66	64.148	385.82	-535.67	35.368	358.84	-538.78	39.645	420.38	-365.7	40.455	461.3	-339.76	49.401	352.73	-281.89	69.3	393.8	-791.75	661.84	179.32	-739.01	565.94	195.96	-810.85	571.76	200.31	-714.38	649.62	174.29	-810.94	481.44	204.06	-789.4	471.05	332.04	-988.21	352.51	203.85	-992.77	241.11	213.66	-1035.5	289.58	213.33	-946.22	302.98	205.59	-1095.4	174.03	223.83	-1070.6	173.76	306.51	-1163.8	187.7	269.58	-1170.1	157.58	304.35	-1179.5	158.8	241.1	-1053.7	47.649	198.69	-1019.7	46.016	303.16	-973.01	41.777	258.33	-779.61	1463	341.44	-856.25	1254.3	302.38
167	0.69167	-568.81	1242.3	353.18	-721.29	1386.8	494.34	-663.4	1430.3	197.96	-746.56	1715.1	370.05	-616.52	988.8	440.83	-610.24	985.64	210.7	-817.28	993.03	350.26	-807.57	997.6	270.7	-673.06	913.95	516.52	-680.27	915.57	154.7	-721.01	1062.4	482.5	-676.17	1059	182.35	-834.12	960.83	314.32	-581.69	718.49	508.3	-507.15	665.63	462.03	-557.09	632.74	496.78	-531.9	753.38	467.64	-516.74	516.94	453.66	-541.79	516.57	327.71	-536.96	281.94	460.07	-463.05	233.54	437.97	-521.3	209.39	453.6	-473.24	310.55	443.8	-487.75	107.25	431.6	-482.68	119.69	352.1	-546.5	64.306	385.78	-535.59	35.463	358.82	-538.71	39.814	420.36	-365.59	40.18	461.31	-339.48	48.658	352.6	-281.49	68.172	393.68	-783.77	660.61	180.27	-730.11	565.13	196.18	-802.16	570.13	201.28	-706.27	649.17	174.62	-801.42	480.49	204.15	-778.99	469.35	331.92	-980.29	354.14	204.28	-986.19	242.81	213.19	-1028.3	291.93	213.51	-938.83	304.1	205.33	-1089.8	177.12	223.63	-1064.8	176.03	306.09	-1156.7	192.88	269.6	-1164.1	163.23	304.46	-1173.6	164.65	241.16	-1052.5	48.947	198.7	-1018.5	46.593	303.06	-972.53	41.393	258.34	-773.98	1463.5	342.42	-850.48	1254.8	303.19
168	0.69583	-562.9	1243	353.67	-715.25	1387.3	495.13	-658.03	1431	198.69	-741.12	1715.6	370.81	-610.4	989.78	441.31	-604.57	986.08	211.19	-811.3	993.63	351.02	-801.67	997.94	271.44	-666.76	915.09	517.21	-674.41	915.56	155.51	-714.79	1063.3	483.03	-670.53	1059.3	182.85	-828.14	961.24	315.2	-575.62	719.29	508.75	-501.24	666.32	462.34	-551.15	633.48	497.16	-525.86	754.13	468.06	-511.25	517.44	453.74	-536.69	517.58	327.94	-533.96	282.5	460.17	-460.67	233.27	437.78	-519.16	209.78	453.58	-469.97	310.4	443.72	-487.1	107.39	431.35	-481.81	119.71	351.95	-546.36	64.431	385.75	-535.53	35.543	358.81	-538.65	39.954	420.34	-365.5	39.994	461.32	-339.24	48.044	352.47	-281.16	67.218	393.57	-775.72	659.38	181.15	-721.11	564.34	196.31	-793.36	568.49	202.15	-698.09	648.75	174.87	-791.75	479.55	204.17	-768.32	467.61	331.7	-972.1	355.8	204.67	-979.37	244.55	212.69	-1020.8	294.31	213.68	-931.21	305.26	205.03	-1083.9	180.27	223.39	-1058.7	178.36	305.66	-1149.3	198.14	269.58	-1157.6	169	304.54	-1167.2	170.63	241.18	-1051.1	50.402	198.69	-1017.1	47.291	302.98	-971.96	40.971	258.34	-768.37	1464	343.39	-844.73	1255.3	304.03
169	0.7	-557.01	1243.7	354.13	-709.22	1387.8	495.9	-652.71	1431.8	199.39	-735.66	1716.2	371.57	-604.31	990.77	441.8	-598.95	986.55	211.7	-805.35	994.26	351.79	-795.84	998.32	272.19	-660.5	916.24	517.9	-668.6	915.59	156.33	-708.58	1064.3	483.58	-664.95	1059.7	183.36	-822.21	961.68	316.1	-569.64	720.06	509.21	-495.44	666.96	462.64	-545.34	634.19	497.55	-519.9	754.83	468.49	-505.94	517.9	453.83	-531.63	518.59	328.16	-531.13	283.04	460.25	-458.45	233	437.63	-517.16	210.16	453.55	-466.87	310.24	443.66	-486.53	107.54	431.13	-481.02	119.75	351.82	-546.25	64.527	385.72	-535.48	35.609	358.8	-538.59	40.067	420.33	-365.43	39.878	461.33	-339.04	47.542	352.35	-280.89	66.418	393.47	-767.61	658.15	181.94	-712.02	563.58	196.35	-784.44	566.87	202.91	-689.85	648.37	175.03	-781.96	478.61	204.11	-757.43	465.83	331.38	-963.65	357.49	205.02	-972.33	246.34	212.14	-1013.1	296.72	213.83	-923.35	306.45	204.68	-1077.7	183.48	223.12	-1052.4	180.75	305.23	-1141.4	203.47	269.52	-1150.8	174.87	304.58	-1160.5	176.73	241.15	-1049.5	52.022	198.68	-1015.7	48.116	302.92	-971.3	40.512	258.32	-762.79	1464.6	344.34	-839.02	1255.9	304.89
170	0.70417	-551.15	1244.5	354.56	-703.18	1388.3	496.66	-647.43	1432.5	200.07	-730.2	1716.8	372.33	-598.24	991.77	442.3	-593.38	987.06	212.21	-799.44	994.92	352.58	-790.08	998.74	272.95	-654.28	917.39	518.59	-662.82	915.66	157.16	-702.4	1065.2	484.13	-659.42	1060.2	183.87	-816.32	962.16	317.02	-563.77	720.8	509.69	-489.78	667.56	462.96	-539.66	634.87	497.95	-514.03	755.5	468.94	-500.82	518.3	453.95	-526.63	519.56	328.39	-528.47	283.56	460.33	-456.36	232.74	437.51	-515.3	210.54	453.54	-463.94	310.06	443.63	-486.02	107.68	430.92	-480.29	119.8	351.71	-546.17	64.598	385.71	-535.44	35.664	358.8	-538.55	40.155	420.32	-365.38	39.817	461.35	-338.87	47.137	352.24	-280.67	65.752	393.39	-759.45	656.93	182.66	-702.86	562.86	196.31	-775.42	565.26	203.57	-681.56	648.03	175.12	-772.05	477.7	203.99	-746.31	464.03	330.96	-954.96	359.22	205.35	-965.06	248.17	211.58	-1005.2	299.16	213.96	-915.28	307.68	204.29	-1071.2	186.74	222.8	-1045.8	183.2	304.8	-1133.1	208.85	269.42	-1143.6	180.83	304.57	-1153.4	182.93	241.08	-1047.7	53.814	198.66	-1014	49.075	302.88	-970.52	40.02	258.28	-757.24	1465.2	345.3	-833.33	1256.5	305.78
171	0.70833	-545.32	1245.3	354.97	-697.15	1388.9	497.41	-642.21	1433.3	200.73	-724.73	1717.5	373.1	-592.22	992.76	442.8	-587.87	987.6	212.74	-793.57	995.6	353.39	-784.38	999.19	273.73	-648.11	918.53	519.29	-657.1	915.75	158	-696.25	1066.2	484.71	-653.94	1060.6	184.39	-810.48	962.67	317.95	-558.01	721.51	510.18	-484.25	668.09	463.29	-534.12	635.5	498.36	-508.27	756.11	469.39	-495.92	518.65	454.09	-521.69	520.5	328.63	-525.98	284.05	460.39	-454.42	232.47	437.43	-513.58	210.9	453.52	-461.17	309.87	443.64	-485.58	107.82	430.74	-479.62	119.86	351.62	-546.1	64.648	385.69	-535.41	35.71	358.81	-538.51	40.222	420.32	-365.33	39.799	461.37	-338.73	46.813	352.13	-280.49	65.2	393.31	-751.25	655.72	183.3	-693.63	562.18	196.18	-766.32	563.68	204.11	-673.25	647.73	175.12	-762.03	476.8	203.81	-735.01	462.23	330.45	-946.05	360.97	205.66	-957.59	250.05	210.98	-997.01	301.63	214.07	-907	308.94	203.88	-1064.4	190.06	222.45	-1038.9	185.71	304.39	-1124.6	214.26	269.26	-1136.1	186.86	304.49	-1145.9	189.2	240.95	-1045.7	55.782	198.62	-1012.2	50.173	302.86	-969.6	39.499	258.21	-751.71	1465.8	346.24	-827.66	1257.1	306.69
